<svg xmlns="http://www.w3.org/2000/svg" width="475.311" height="512" viewBox="0 0 475.311 512">
  <g id="ninja2" transform="translate(-18.345)">
    <path id="Path_36" data-name="Path 36" d="M144.617,241.574l-41.531,21.074L228.895,510.57A257.85,257.85,0,0,0,256,512q12.768,0,25.219-1.238Zm0,0"/>
    <path id="Path_37" data-name="Path 37" d="M129.785,249.1,263.14,511.9q9.123-.246,18.078-1.133l-136.6-269.188Zm0,0" fill="#232323"/>
    <path id="Path_38" data-name="Path 38" d="M47.168,70.09,22.223,82.75a7.081,7.081,0,0,0-3.109,9.52l85.949,169.375,37.574-19.066L56.688,73.2a7.082,7.082,0,0,0-9.52-3.113Zm0,0" fill="#232323"/>
    <path id="Path_39" data-name="Path 39" d="M37.9,82.734l85.953,169.379-18.789,9.531L19.113,92.27a7.081,7.081,0,0,1,3.109-9.52l18.789-9.535a7.082,7.082,0,0,0-3.113,9.52Zm0,0"/>
    <path id="Path_40" data-name="Path 40" d="M158.6,220.574,77.879,261.535A12.4,12.4,0,0,0,89.1,283.652l80.723-40.965A12.4,12.4,0,1,0,158.6,220.574Zm0,0" fill="#ffd00d"/>
    <path id="Path_41" data-name="Path 41" d="M87.266,270.68a12.4,12.4,0,0,0,16.668,5.445L89.1,283.653a12.4,12.4,0,0,1-11.223-22.117l14.832-7.523A12.4,12.4,0,0,0,87.266,270.68Zm0,0" fill="#ffaf10"/>
    <path id="Path_42" data-name="Path 42" d="M97.422,203.293l-4.387,13.414a2.093,2.093,0,0,0,1.34,2.637l13.414,4.383a2.088,2.088,0,0,0,2.637-1.336l4.383-13.414a2.088,2.088,0,0,0-1.336-2.637l-13.414-4.387A2.093,2.093,0,0,0,97.422,203.293Zm0,0"/>
    <path id="Path_43" data-name="Path 43" d="M80.984,170.91,76.6,184.324a2.091,2.091,0,0,0,1.34,2.637l13.414,4.383a2.088,2.088,0,0,0,2.637-1.336l4.383-13.418a2.089,2.089,0,0,0-1.336-2.637L83.621,169.57a2.093,2.093,0,0,0-2.637,1.34Zm0,0"/>
    <path id="Path_44" data-name="Path 44" d="M64.555,138.523l-4.383,13.418a2.089,2.089,0,0,0,1.336,2.637l13.414,4.383a2.09,2.09,0,0,0,2.637-1.34l4.383-13.414a2.089,2.089,0,0,0-1.336-2.637l-13.414-4.383a2.088,2.088,0,0,0-2.637,1.336Zm0,0"/>
    <path id="Path_45" data-name="Path 45" d="M48.117,106.141l-4.383,13.414a2.093,2.093,0,0,0,1.34,2.637l13.414,4.383a2.088,2.088,0,0,0,2.637-1.336l4.383-13.414a2.088,2.088,0,0,0-1.336-2.637l-13.414-4.383A2.093,2.093,0,0,0,48.117,106.141Zm0,0"/>
    <path id="Path_46" data-name="Path 46" d="M230.781,510.762Q243.226,511.981,256,512a257.721,257.721,0,0,0,27.1-1.43L408.914,262.649l-41.531-21.074Zm0,0"/>
    <path id="Path_47" data-name="Path 47" d="M367.383,241.574l-136.6,269.188q8.953.879,18.078,1.133L382.214,249.1Zm0,0" fill="#232323"/>
    <path id="Path_48" data-name="Path 48" d="M464.832,70.09l24.945,12.66a7.081,7.081,0,0,1,3.109,9.52L406.938,261.645l-37.574-19.066L455.313,73.2a7.084,7.084,0,0,1,9.52-3.109Zm0,0" fill="#232323"/>
    <path id="Path_49" data-name="Path 49" d="M474.1,82.734,388.149,252.113l18.789,9.531L492.887,92.27a7.081,7.081,0,0,0-3.109-9.52l-18.789-9.535a7.082,7.082,0,0,1,3.113,9.52Zm0,0"/>
    <path id="Path_50" data-name="Path 50" d="M353.4,220.574l80.723,40.961A12.4,12.4,0,0,1,422.9,283.652l-80.723-40.965A12.4,12.4,0,1,1,353.4,220.574Zm0,0" fill="#ffd00d"/>
    <path id="Path_51" data-name="Path 51" d="M424.734,270.68a12.4,12.4,0,0,1-16.668,5.445l14.832,7.527a12.4,12.4,0,0,0,11.223-22.117l-14.832-7.523A12.4,12.4,0,0,1,424.734,270.68Zm0,0" fill="#ffaf10"/>
    <path id="Path_52" data-name="Path 52" d="M414.578,203.293l4.387,13.414a2.093,2.093,0,0,1-1.34,2.637l-13.414,4.383a2.088,2.088,0,0,1-2.637-1.336l-4.383-13.414a2.088,2.088,0,0,1,1.336-2.637l13.414-4.387A2.093,2.093,0,0,1,414.578,203.293Zm0,0"/>
    <path id="Path_53" data-name="Path 53" d="M431.016,170.91l4.383,13.414a2.091,2.091,0,0,1-1.34,2.637l-13.414,4.383a2.088,2.088,0,0,1-2.637-1.336l-4.383-13.418a2.089,2.089,0,0,1,1.336-2.637l13.418-4.383A2.093,2.093,0,0,1,431.016,170.91Zm0,0"/>
    <path id="Path_54" data-name="Path 54" d="M447.445,138.523l4.383,13.418a2.089,2.089,0,0,1-1.336,2.637l-13.414,4.383a2.09,2.09,0,0,1-2.637-1.34l-4.383-13.414a2.089,2.089,0,0,1,1.336-2.637l13.414-4.383A2.088,2.088,0,0,1,447.445,138.523Zm0,0"/>
    <path id="Path_55" data-name="Path 55" d="M463.883,106.141l4.383,13.414a2.093,2.093,0,0,1-1.34,2.637l-13.414,4.383a2.088,2.088,0,0,1-2.637-1.336l-4.383-13.414a2.088,2.088,0,0,1,1.336-2.637l13.414-4.383A2.093,2.093,0,0,1,463.883,106.141Zm0,0"/>
    <path id="Path_56" data-name="Path 56" d="M452.152,420.484l-17.879-55.312a48.52,48.52,0,0,0-37.238-32.77l-94.973-17.789H209.937L114.964,332.4a48.52,48.52,0,0,0-37.238,32.77L59.847,420.484a255.971,255.971,0,0,0,392.3,0Zm0,0"/>
    <path id="Path_57" data-name="Path 57" d="M452.152,420.484l-17.879-55.312a48.52,48.52,0,0,0-37.238-32.77L320.3,318.027,129.1,478.375a256.083,256.083,0,0,0,323.054-57.891Zm0,0" fill="#2e4c89"/>
    <path id="Path_58" data-name="Path 58" d="M263.781,365.426,129.1,478.375a256.19,256.19,0,0,0,262.871-5.449Zm0,0" fill="#293d7c"/>
    <path id="Path_59" data-name="Path 59" d="M312.516,316.594S290.1,329.66,256,329.66s-56.516-13.066-56.516-13.066l6.07-89.2H306.446Zm0,0" fill="#232323"/>
    <path id="Path_60" data-name="Path 60" d="M310.555,287.762l-4.109-60.367H205.555l-4.109,60.367-1.961,28.832a87.218,87.218,0,0,0,14.223,6.109l2.051-28.5c14.852,5.781,29,8.535,40.242,8.535,14.82,0,34.668-4.77,54.555-14.973Zm0,0"/>
    <path id="Path_61" data-name="Path 61" d="M370.957,82.438C358.277,46.414,327.977,0,256,0S153.723,46.414,141.043,82.438a132.814,132.814,0,0,0-5.555,65.578c5.281,32.281,16.914,87.738,36.648,106.742,28.48,27.43,63.82,37.977,83.863,37.977s55.383-10.551,83.867-37.977c19.73-19,31.363-74.461,36.648-106.742a132.861,132.861,0,0,0-5.559-65.578Zm0,0" fill="#445ea0"/>
    <path id="Path_62" data-name="Path 62" d="M187.137,254.758c-19.734-19-31.367-74.461-36.652-106.742a132.861,132.861,0,0,1,5.559-65.578C168.274,47.692,196.9,3.286,263.5.18,261.051.067,258.555,0,256,0,184.024,0,153.723,46.415,141.043,82.438a132.814,132.814,0,0,0-5.555,65.578c5.281,32.281,16.914,87.742,36.648,106.742,28.48,27.43,63.82,37.977,83.863,37.977a70.361,70.361,0,0,0,7.5-.437c-20.594-2.219-51.16-13.266-76.363-37.539Zm0,0" fill="#2e4c89"/>
    <path id="Path_63" data-name="Path 63" d="M191.7,318.027,114.965,332.4a48.52,48.52,0,0,0-37.238,32.77L59.847,420.484A256.083,256.083,0,0,0,382.9,478.375Zm0,0" fill="#445ea0"/>
    <path id="Path_64" data-name="Path 64" d="M136.043,82.438a130.33,130.33,0,0,0-7.18,36.859,5.65,5.65,0,0,0,5.664,5.891H377.472a5.65,5.65,0,0,0,5.664-5.891,130.2,130.2,0,0,0-7.184-36.859c-1.105-3.152-2.352-6.379-3.746-9.652a5.691,5.691,0,0,0-5.227-3.461H145.019a5.691,5.691,0,0,0-5.227,3.461c-1.395,3.273-2.641,6.5-3.75,9.652Zm0,0" fill="#232323"/>
    <path id="Path_65" data-name="Path 65" d="M143.863,119.3a130.331,130.331,0,0,1,7.18-36.859c1.109-3.152,2.355-6.379,3.75-9.652a5.691,5.691,0,0,1,5.227-3.461h-15a5.691,5.691,0,0,0-5.227,3.461c-1.395,3.273-2.641,6.5-3.75,9.652a130.33,130.33,0,0,0-7.18,36.859,5.65,5.65,0,0,0,5.664,5.891h15A5.65,5.65,0,0,1,143.863,119.3Zm0,0"/>
    <path id="Path_66" data-name="Path 66" d="M311.648,191.367l-18.934-7.883a95.5,95.5,0,0,0-73.426,0l-18.937,7.883a34.41,34.41,0,1,1-13.227-66.176h137.75a34.41,34.41,0,1,1-13.227,66.176Zm0,0" fill="#f2b675"/>
    <path id="Path_67" data-name="Path 67" d="M256,147.625V125.191h68.875a34.41,34.41,0,1,1-13.227,66.176l-18.937-7.883a95.441,95.441,0,0,0-23.148-6.367l-6.215-8.016A35.078,35.078,0,0,1,256,147.625Zm0,0" fill="#ffc987"/>
    <path id="Path_68" data-name="Path 68" d="M167.715,159.6a34.411,34.411,0,0,1,34.41-34.41h-15a34.411,34.411,0,1,0,7.461,68A34.393,34.393,0,0,1,167.715,159.6Zm0,0" fill="#e5a565"/>
  </g>
</svg>
