<svg xmlns="http://www.w3.org/2000/svg" width="617" height="617" viewBox="0 0 617 617">
  <path id="black-circle" d="M122.833,617a310.782,310.782,0,0,1-62.174-6.268A306.81,306.81,0,0,1-49.652,564.313a310.2,310.2,0,0,1-83.328-83.328,308.536,308.536,0,0,1-28.444-52.4A306.942,306.942,0,0,1-179.4,370.674a311.508,311.508,0,0,1,0-124.347,306.941,306.941,0,0,1,17.976-57.909,308.536,308.536,0,0,1,28.444-52.4A310.2,310.2,0,0,1-49.652,52.687a308.094,308.094,0,0,1,344.971,0,310.207,310.207,0,0,1,83.328,83.328,308.54,308.54,0,0,1,28.444,52.4,306.953,306.953,0,0,1,17.976,57.909,311.512,311.512,0,0,1,0,124.347,306.954,306.954,0,0,1-17.976,57.909,308.539,308.539,0,0,1-28.444,52.4,310.2,310.2,0,0,1-83.328,83.328A307.29,307.29,0,0,1,122.833,617ZM123,131c-98.15,0-178,79.85-178,178S24.851,487,123,487s178-79.851,178-178S221.149,131,123,131Z" transform="translate(185.667 0)" fill="#d4cdfd"/>
</svg>
